<svg width="20" height="14" viewBox="0 0 20 14" fill="none" xmlns="http://www.w3.org/2000/svg">
<path d="M19.1085 2.44097C18.8895 1.62703 18.2478 0.985448 17.434 0.766272C15.9471 0.359375 9.99981 0.359375 9.99981 0.359375C9.99981 0.359375 4.05263 0.359375 2.56579 0.750761C1.76766 0.969793 1.11027 1.62718 0.891241 2.44097C0.5 3.92766 0.5 7.01091 0.5 7.01091C0.5 7.01091 0.5 10.1097 0.891241 11.5809C1.11042 12.3946 1.752 13.0364 2.56594 13.2556C4.06828 13.6624 9.99996 13.6624 9.99996 13.6624C9.99996 13.6624 15.9471 13.6624 17.434 13.2711C18.2479 13.052 18.8895 12.4103 19.1087 11.5965C19.4999 10.1097 19.4999 7.02657 19.4999 7.02657C19.4999 7.02657 19.5156 3.92766 19.1085 2.44097Z" fill="#FF0000"/>
<path d="M8.10645 9.85895L13.052 7.01053L8.10645 4.16211V9.85895Z" fill="white"/>
</svg>
