<svg xmlns="http://www.w3.org/2000/svg" viewBox="0 0 149 50" fill="none">
<g clip-path="url(#clip0_11608_51108)">
<path d="M125.228 24.0144C126.418 24.1325 127.883 23.6308 128.809 24.5928C129.355 25.0708 129.443 25.8086 129.407 26.4873C129.396 27.2132 129.396 27.9391 129.396 28.665H131.864C131.852 29.3733 131.969 30.1995 131.412 30.772C130.932 31.3681 130.134 31.5274 129.396 31.4861C129.396 34.3485 129.396 37.2108 129.396 40.0732C129.372 40.4922 129.56 40.9644 129.994 41.0942C130.609 41.23 131.237 41.1296 131.864 41.1591C131.864 42.1979 131.852 43.2366 131.864 44.2812C130.428 44.293 128.985 44.3343 127.543 44.2104C126.969 44.1632 126.377 43.992 125.954 43.5789C125.403 43.0536 125.233 42.2687 125.228 41.5368C125.228 35.6941 125.228 29.8513 125.222 24.0144" fill="white"/>
<path d="M103.554 30.4592C104.639 29.149 106.315 28.3995 108.021 28.2578C109.915 28.0926 111.937 28.3641 113.544 29.4323C114.915 30.3412 115.742 31.852 116.17 33.3865C114.769 33.3865 113.368 33.3629 111.972 33.3865C111.627 32.8258 111.234 32.2593 110.618 31.9701C109.446 31.4389 107.886 31.551 106.96 32.4835C106.145 33.3924 105.934 34.6495 105.893 35.8121C105.852 37.1518 105.893 38.5978 106.643 39.7722C107.693 41.5015 110.565 41.5664 111.82 40.026C112.096 39.7368 112.43 39.4535 112.858 39.4535C114.001 39.4063 115.144 39.4535 116.299 39.4299C115.883 40.9644 115.003 42.4044 113.649 43.2838C111.832 44.5232 109.469 44.777 107.329 44.4051C105.436 44.0924 103.759 42.8589 102.85 41.2064C101.918 39.5244 101.696 37.5414 101.766 35.6528C101.848 33.8055 102.329 31.8992 103.566 30.4592" fill="white"/>
<path d="M117.894 28.5765C118.902 28.6414 119.963 28.4113 120.919 28.7477C121.628 29.0723 122.138 29.8041 122.109 30.5831V44.2812C120.708 44.2753 119.295 44.2812 117.888 44.2812C117.899 39.0404 117.894 33.8114 117.888 28.5765" fill="white"/>
<path d="M133.429 28.5765H138.095C139.021 31.7163 139.942 34.8619 140.868 37.9958C141.009 38.4856 141.103 39.005 141.366 39.4594C142.322 36.2548 143.254 33.0265 144.198 29.8159C144.38 29.1313 145.025 28.6296 145.746 28.5942C146.83 28.547 147.915 28.5942 149.005 28.5765C147.1 34.0947 145.206 39.6306 143.301 45.1606C142.779 46.6655 142.293 48.3829 140.862 49.3331C139.274 50.0767 137.415 49.9882 135.715 49.7935V46.5593C136.741 46.5416 137.925 46.6832 138.769 45.9809C139.326 45.5501 139.244 44.771 139.027 44.1868C137.163 38.9873 135.293 33.7819 133.429 28.5824" fill="white"/>
<path d="M113.737 19.6353C115.613 19.836 117.536 20.1783 119.201 21.1107C120.309 21.7422 121.288 22.7455 121.517 24.0203C121.611 24.7699 121.581 25.543 121.394 26.2807C120.139 24.7403 118.767 23.2118 116.968 22.2734C118.193 23.7193 119.565 25.0945 120.415 26.8001C119.148 27.107 117.759 26.8473 116.686 26.1214C115.455 25.2833 114.722 23.9141 114.306 22.5331C113.989 21.5888 113.89 20.6032 113.737 19.6294" fill="#6DBD45"/>
<path d="M4.29131 27.5614C4.29131 29.4854 4.29131 31.4153 4.29131 33.3333C5.80382 33.351 7.3222 33.3628 8.83471 33.3333C9.57924 33.3333 10.3707 33.1445 10.9159 32.6192C11.467 32.094 11.6194 31.309 11.6428 30.589C11.6663 29.7628 11.4845 28.8598 10.8866 28.2519C10.2886 27.7207 9.45613 27.5496 8.65884 27.5614C7.20495 27.5614 5.7452 27.5614 4.29131 27.5614ZM0.0117249 26.1509C-0.0468996 25.0177 0.979029 23.9672 2.15152 24.0085C4.65478 24.0144 7.16391 24.0144 9.66718 24.0144C11.2969 24.0439 13.0381 24.4688 14.193 25.6669C15.3479 26.7705 15.77 28.3935 15.8579 29.9398C15.9459 31.6985 15.6703 33.5871 14.5447 35.0272C13.4954 36.3964 11.6897 36.9747 9.99547 37.0161C8.09604 37.0279 6.19661 37.0161 4.29131 37.0279C4.30304 39.4476 4.29131 41.8614 4.30304 44.2812H0C0.0117249 38.2377 0 32.1943 0.0117249 26.1509Z" fill="#6DBD45"/>
<path d="M17.4287 24.0145C18.1263 24.0145 18.8181 23.9968 19.5157 24.0086C20.6003 23.9673 21.5735 24.9352 21.55 25.9975C21.5617 27.532 21.55 29.0546 21.55 30.5832C22.3356 29.3202 23.6957 28.4585 25.1906 28.2874C28.2508 27.7267 31.4751 29.9045 32.1493 32.8436C32.3311 33.599 32.4073 34.3839 32.4131 35.163V44.2753C31.0472 44.2753 29.693 44.2753 28.3211 44.2753C28.3036 41.4425 28.3211 38.6155 28.3211 35.7886C28.3563 34.2423 27.6176 32.46 26.0172 31.9229C24.8799 31.5924 23.5081 31.8049 22.6873 32.6842C21.8549 33.5636 21.5676 34.7853 21.5617 35.9479V44.2694C20.1899 44.2694 18.8122 44.2694 17.4404 44.2694C17.4404 37.5119 17.4404 30.7425 17.4404 24.0027" fill="#6DBD45"/>
<path d="M41.401 37.2462C40.5568 37.4291 39.6188 37.5708 38.9623 38.1669C38.2939 38.9518 38.2939 40.2915 39.1205 40.9702C39.7713 41.4424 40.6506 41.3833 41.4128 41.2889C42.509 41.1532 43.5232 40.4154 43.9219 39.3885C44.3147 38.4383 44.1857 37.3996 44.2091 36.4022C43.3122 36.7977 42.3625 37.0632 41.4069 37.2462M37.1508 29.2138C38.6867 28.246 40.6037 28.1338 42.3801 28.2401C43.9395 28.3522 45.6044 28.6296 46.8121 29.6683C47.668 30.3765 48.1194 31.4624 48.1311 32.5484C48.1311 34.3956 48.1253 36.2488 48.1311 38.1019C48.1253 39.5715 47.8439 41.1355 46.8238 42.2804C45.622 43.7854 43.6053 44.3992 41.7117 44.4818C39.8475 44.6884 37.8132 44.588 36.2479 43.4667C34.9641 42.6286 34.5009 41.0233 34.5654 39.5833C34.5068 38.2318 34.9523 36.715 36.1717 35.9419C37.6022 34.9622 39.3609 34.673 41.0551 34.4664C41.9931 34.313 43.0367 34.2363 43.7871 33.6048C44.3205 33.1444 44.174 32.1943 43.5408 31.8992C42.9722 31.6218 42.3273 31.5392 41.7059 31.486C40.6975 31.4447 39.4957 31.6336 38.9916 32.6074C37.6432 32.6192 36.289 32.6133 34.9465 32.6074C35.1282 31.2382 35.9372 29.9634 37.139 29.2197" fill="#6DBD45"/>
<path d="M62.1419 29.9752C63.6427 28.848 65.5421 28.2578 67.4298 28.2106C69.1592 28.2578 71.0176 28.5352 72.3836 29.6683C73.6557 28.6296 75.3441 28.3286 76.9563 28.2283C78.7912 28.187 80.6672 28.6945 82.1856 29.7273C83.2819 30.4946 83.8212 31.793 84.0323 33.0618C84.255 34.1891 84.173 35.3458 84.1847 36.479V44.293C83.2584 44.2576 82.3028 44.3815 81.3824 44.1926C80.591 43.9684 79.9989 43.1952 80.0223 42.3749V34.5137C80.0223 33.7937 79.9403 32.991 79.4068 32.4481C78.2636 31.2736 76.1473 31.2736 74.9924 32.4304C74.4882 32.932 74.3709 33.6697 74.3709 34.3484C74.3592 37.6593 74.3709 40.9762 74.3592 44.293C72.964 44.293 71.5628 44.293 70.1617 44.293V34.1891C70.1852 33.4573 69.9331 32.6546 69.2999 32.2002C68.1392 31.309 66.3101 31.3444 65.2548 32.3831C64.78 32.8494 64.6158 33.5281 64.6275 34.1832C64.6158 37.5472 64.6275 40.9171 64.6275 44.2871C63.2088 44.2871 61.8019 44.2871 60.389 44.2871C60.389 41.0352 60.3773 37.7656 60.389 34.5137C60.4711 32.8907 60.8111 31.0965 62.136 29.9811" fill="#6DBD45"/>
<path d="M91.9584 37.4469C91.2256 37.6417 90.3345 37.9309 90.1059 38.7276C89.7072 39.6306 90.0648 40.9408 91.1084 41.23C92.5095 41.5841 94.2213 41.2182 95.0655 39.9906C95.8159 38.946 95.6576 37.6063 95.6693 36.4082C94.491 36.9334 93.213 37.1695 91.9643 37.441M89.6193 28.7182C91.5011 28.0335 93.5764 28.1221 95.5286 28.4408C97.1291 28.7182 98.7999 29.5975 99.3627 31.1851C99.7965 32.5779 99.5444 34.0593 99.6148 35.4875C99.5444 37.5767 99.8962 39.8725 98.7002 41.7434C97.6391 43.4667 95.5638 44.3343 93.5706 44.4523C91.6887 44.653 89.631 44.6884 87.9954 43.6379C86.7467 42.9651 86.1135 41.5723 86.0432 40.2326C85.9494 38.8751 86.1135 37.323 87.1629 36.3315C88.4702 35.1924 90.2466 34.7498 91.9467 34.5491C93.0312 34.3544 94.233 34.3544 95.1534 33.6993C95.7631 33.292 95.7221 32.3005 95.089 31.9464C94.5437 31.6395 93.9106 31.5746 93.295 31.4979C92.2633 31.433 90.997 31.6041 90.4635 32.6015C89.121 32.6133 87.7726 32.6074 86.4243 32.6015C86.6412 30.8487 87.9309 29.3201 89.6134 28.7241" fill="#6DBD45"/>
<path d="M52.633 30.3116C54.4386 28.8834 56.8715 28.5234 59.1286 28.5765C59.1286 29.9752 59.1286 31.3857 59.1286 32.7904C57.9561 32.8081 56.6781 32.631 55.6228 33.2507C54.6555 33.7878 54.3214 34.9504 54.3214 35.9714V44.2871C52.9144 44.2871 51.5133 44.2871 50.1063 44.2871C50.118 41.5132 50.0887 38.7571 50.118 35.9951C50.1532 33.8881 50.927 31.6749 52.633 30.3175" fill="#6DBD45"/>
<path d="M22.6113 17.1034V5.01648H25.9588L30.8129 12.8895H30.8832L30.8129 5.01648H33.662V17.1034H30.3322L25.4253 9.21856H25.3901L25.4605 17.1034H22.6113Z" fill="white"/>
<path d="M36.165 17.1034V5.01648H39.1139V9.59037H43.8331V5.01648H46.7526V17.1034H43.8331V12.0514H39.1139V17.1034H36.165Z" fill="white"/>
<path d="M47.7852 17.1033L52.8972 5.01647H55.7112L60.7705 17.1033H57.511L56.5495 14.7308H51.8654L50.9743 17.1033H47.7852ZM53.5831 3.89513L51.3847 1.43408H54.2339L55.6936 3.89513H53.5831ZM52.7096 12.376H55.7815L54.269 8.29787V8.22705L54.2514 8.30967L52.7096 12.3701V12.376Z" fill="white"/>
<path d="M67.617 17.1034V7.49531H64.2051V5.02246H73.9836V7.49531H70.5541V17.1093H67.6229L67.617 17.1034Z" fill="white"/>
<path d="M75.3203 17.1034V5.01648H78.2691V9.59037H82.9884V5.01648H85.9079V17.1034H82.9884V12.0514H78.2691V17.1034H75.3203Z" fill="white"/>
<path d="M93.4939 17.428C92.4387 17.428 91.53 17.2214 90.7562 16.8142C89.9823 16.4069 89.3843 15.8345 88.9622 15.0967C88.5402 14.3649 88.3291 13.5092 88.3291 12.5472V5.01648H91.2134V12.3052C91.2134 13.1019 91.4245 13.7157 91.8466 14.1466C92.2687 14.5774 92.8197 14.7958 93.4939 14.7958C94.2502 14.7958 94.8188 14.5656 95.2116 14.1052C95.5985 13.6449 95.7979 13.0429 95.7979 12.3052V5.01648H98.7291V12.5472C98.7291 13.5151 98.5122 14.3649 98.0842 15.0967C97.6563 15.8286 97.0407 16.401 96.2375 16.8142C95.4344 17.2214 94.5198 17.428 93.4939 17.428Z" fill="white"/>
<path d="M107.119 17.428C105.219 17.428 103.642 16.826 102.394 15.6279C101.139 14.4299 100.518 12.8836 100.518 10.995C100.518 9.10647 101.139 7.572 102.382 6.42115C103.625 5.2703 105.202 4.69783 107.125 4.69783C109.047 4.69783 110.665 5.2762 111.914 6.43886C113.163 7.60151 113.784 9.12417 113.784 11.0127C113.784 12.9013 113.157 14.4299 111.908 15.6279C110.654 16.826 109.065 17.428 107.13 17.428H107.119ZM107.119 14.7663C108.15 14.7663 108.989 14.4181 109.64 13.7158C110.29 13.0135 110.619 12.1164 110.619 11.0127C110.619 9.90911 110.29 9.05925 109.64 8.36874C108.989 7.67233 108.145 7.33003 107.119 7.33003C106.093 7.33003 105.272 7.67233 104.633 8.36284C103.994 9.05335 103.672 9.93862 103.672 11.0186C103.672 12.0987 103.988 13.0253 104.621 13.7217C105.254 14.424 106.087 14.7722 107.119 14.7722V14.7663ZM103.941 4.06043L105.899 1.59939H108.438L110.361 4.06043H108.133L107.136 2.67941L106.14 4.06043H103.941ZM109.552 2.46105L110.994 0H113.843L111.662 2.46105H109.552Z" fill="white"/>
<path d="M121.669 17.428C119.793 17.428 118.234 16.8319 116.985 15.6338C115.737 14.4417 115.115 12.9072 115.115 11.0422C115.115 9.17726 115.743 7.60738 116.991 6.43883C118.246 5.27027 119.817 4.69189 121.716 4.69189C122.596 4.69189 123.452 4.85124 124.272 5.16404C125.093 5.47683 125.756 5.91357 126.248 6.46833L124.272 8.45134C124.009 8.07362 123.663 7.79624 123.223 7.61328C122.789 7.43033 122.32 7.3418 121.816 7.3418C120.796 7.3418 119.958 7.69001 119.301 8.39232C118.644 9.09463 118.316 9.9799 118.316 11.0481C118.316 12.1164 118.639 13.0311 119.278 13.7216C119.917 14.4121 120.755 14.7545 121.781 14.7545C122.332 14.7545 122.83 14.6423 123.276 14.4121C123.721 14.182 124.079 13.8869 124.343 13.5269L126.383 15.4568C125.82 16.0824 125.146 16.5722 124.349 16.9145C123.551 17.2627 122.66 17.4339 121.664 17.4339L121.669 17.428Z" fill="white"/>
</g>
<defs>
<clipPath id="clip0_11608_51108">
<rect width="149" height="49.9292" fill="white"/>
</clipPath>
</defs>
</svg>
