<svg width="147" height="55" viewBox="0 0 147 55" fill="none" xmlns="http://www.w3.org/2000/svg">
<path d="M19.8104 0.708529C17.2774 0.708529 14.8272 1.18353 12.5177 2.11686C10.2827 3.0252 8.27943 4.31686 6.54938 5.97519C4.81932 7.63353 3.46177 9.55853 2.5181 11.7169C1.53304 13.9502 1.03638 16.3169 1.03638 18.7585C1.03638 21.2002 1.53304 23.5752 2.5181 25.8002C3.47004 27.9502 4.8276 29.8835 6.54938 31.5419C8.27115 33.1919 10.2827 34.4919 12.5177 35.4002C14.8272 36.3335 17.2857 36.8085 19.8104 36.8085H126.983C129.516 36.8085 131.966 36.3335 134.275 35.3919C136.51 34.4835 138.522 33.1835 140.244 31.5335C141.974 29.8752 143.331 27.9419 144.275 25.7919C145.26 23.5585 145.757 21.1919 145.757 18.7502C145.757 16.3085 145.26 13.9335 144.275 11.7085C143.331 9.55853 141.974 7.6252 140.235 5.96686C138.514 4.31686 136.502 3.01686 134.267 2.10853C131.958 1.1752 129.499 0.700195 126.974 0.700195H19.8104V0.708529Z" fill="white"/>
<path d="M103.416 3.92529C105.626 4.16696 107.886 4.57529 109.848 5.68363C111.155 6.43363 112.306 7.63363 112.579 9.15029C112.687 10.042 112.654 10.9586 112.439 11.842C110.965 10.0086 109.343 8.18363 107.232 7.07529C108.672 8.79196 110.286 10.4336 111.288 12.467C109.798 12.8336 108.159 12.517 106.892 11.6586C105.444 10.6586 104.583 9.02529 104.095 7.39196C103.722 6.26696 103.606 5.09196 103.424 3.93363" fill="#5EAB46"/>
<path d="M14.8685 14.7417C14.8685 16.3667 14.8685 17.9917 14.8685 19.6084C16.1267 19.625 17.3932 19.6334 18.6597 19.6084C19.2805 19.6084 19.9345 19.45 20.3897 19C20.8533 18.5584 20.9775 17.8917 20.994 17.2834C21.0106 16.5834 20.8616 15.825 20.3649 15.3084C19.8682 14.8584 19.1729 14.7167 18.5107 14.725C17.3021 14.725 16.0853 14.725 14.8685 14.725M11.3007 13.5334C11.2511 12.575 12.112 11.6917 13.0805 11.725C15.1665 11.725 17.2607 11.725 19.3467 11.725C20.7043 11.75 22.1612 12.1084 23.1214 13.1167C24.0816 14.05 24.4376 15.4167 24.5038 16.7167C24.5783 18.2 24.3465 19.7917 23.4028 21.0084C22.5337 22.1667 21.0188 22.65 19.6116 22.6834C18.0306 22.6834 16.4412 22.6834 14.8602 22.6834C14.8685 24.725 14.8602 26.7584 14.8685 28.8H11.2842C11.2925 23.7 11.2842 18.6084 11.2925 13.5084" fill="#5EAB46"/>
<path d="M25.8201 11.7501C26.3995 11.7501 26.979 11.7334 27.5584 11.7501C28.4607 11.7167 29.2719 12.5334 29.2553 13.4251C29.2553 14.7167 29.2553 16.0001 29.2553 17.2917C29.9093 16.2251 31.0433 15.5001 32.2933 15.3584C34.8428 14.8834 37.5331 16.7251 38.096 19.2001C38.245 19.8417 38.3112 20.5001 38.3195 21.1584V28.8501C37.1855 28.8501 36.0514 28.8501 34.9091 28.8501C34.8925 26.4584 34.9091 24.0751 34.9091 21.6917C34.9339 20.3834 34.3213 18.8834 32.9886 18.4334C32.0367 18.1501 30.8943 18.3334 30.2073 19.0751C29.512 19.8167 29.2719 20.8501 29.2636 21.8251V28.8501C28.1213 28.8501 26.9707 28.8501 25.8283 28.8501C25.8283 23.1501 25.8283 17.4417 25.8283 11.7501" fill="#5EAB46"/>
<path d="M45.8024 22.9085C45.0988 23.0585 44.3207 23.1835 43.7661 23.6835C43.2115 24.3502 43.2115 25.4752 43.8985 26.0502C44.4449 26.4502 45.1733 26.4002 45.8107 26.3168C46.7295 26.2002 47.5656 25.5752 47.905 24.7168C48.2278 23.9168 48.1285 23.0418 48.145 22.1918C47.3917 22.5252 46.6054 22.7502 45.8107 22.9085M42.2678 16.1335C43.5509 15.3168 45.1485 15.2252 46.6302 15.3085C47.9298 15.4085 49.3122 15.6335 50.3304 16.5085C51.0422 17.1085 51.423 18.0168 51.4313 18.9418C51.4313 20.5002 51.4313 22.0585 51.4313 23.6252C51.4313 24.8668 51.1912 26.1835 50.3469 27.1502C49.3453 28.4168 47.6649 28.9335 46.0839 29.0085C44.5359 29.1835 42.839 29.1002 41.5311 28.1502C40.455 27.4418 40.0742 26.0918 40.1321 24.8752C40.0825 23.7335 40.455 22.4585 41.4731 21.8002C42.6651 20.9752 44.1303 20.7335 45.5458 20.5502C46.3322 20.4168 47.2014 20.3585 47.8222 19.8252C48.2692 19.4335 48.145 18.6335 47.6152 18.3835C47.1434 18.1502 46.6054 18.0835 46.0839 18.0335C45.2478 18.0002 44.2379 18.1585 43.824 18.9752C42.6982 18.9835 41.5725 18.9752 40.455 18.9752C40.604 17.8168 41.2827 16.7418 42.2844 16.1168" fill="#5EAB46"/>
<path d="M63.0949 16.7754C64.3448 15.8254 65.9259 15.3254 67.5069 15.2837C68.9473 15.3254 70.4952 15.5587 71.6375 16.5087C72.6971 15.6337 74.1043 15.3837 75.4536 15.292C76.985 15.2587 78.5495 15.6837 79.816 16.5587C80.7265 17.2004 81.1818 18.3004 81.3556 19.367C81.5378 20.317 81.4715 21.292 81.4798 22.2504V28.842C80.71 28.8087 79.907 28.917 79.1455 28.7587C78.4915 28.567 77.9866 27.917 78.0114 27.2254V20.6004C78.0114 19.992 77.9452 19.317 77.4982 18.8587C76.5463 17.867 74.7748 17.867 73.8146 18.842C73.3924 19.267 73.2931 19.8837 73.2931 20.4587C73.2848 23.2504 73.2931 26.0504 73.2848 28.842C72.1176 28.842 70.9505 28.842 69.7916 28.842V20.317C69.8164 19.7004 69.6012 19.017 69.0714 18.642C68.1029 17.892 66.5798 17.9254 65.7024 18.8004C65.305 19.192 65.1726 19.767 65.1809 20.317C65.1809 23.1587 65.1809 25.992 65.1809 28.842C63.9971 28.842 62.8217 28.842 61.6463 28.842C61.6463 26.1004 61.638 23.342 61.6463 20.6004C61.7125 19.2337 62.0022 17.717 63.1031 16.7754" fill="#5EAB46"/>
<path d="M87.953 23.0752C87.3404 23.2419 86.5954 23.4835 86.4051 24.1585C86.0739 24.9252 86.3719 26.0252 87.2411 26.2669C88.4083 26.5669 89.8403 26.2585 90.5357 25.2252C91.1648 24.3419 91.0323 23.2085 91.0406 22.2002C90.0556 22.6419 88.996 22.8419 87.953 23.0752ZM85.9994 15.7169C87.5722 15.1419 89.3023 15.2169 90.9247 15.4835C92.2575 15.7169 93.6481 16.4585 94.12 17.8002C94.4842 18.9752 94.2772 20.2252 94.3352 21.4252C94.2772 23.1835 94.5669 25.1252 93.5736 26.7002C92.6879 28.1502 90.9578 28.8835 89.3023 28.9835C87.7295 29.1502 86.016 29.1835 84.6502 28.3002C83.6072 27.7335 83.0774 26.5585 83.0194 25.4252C82.9449 24.2752 83.0774 22.9752 83.9548 22.1335C85.0475 21.1752 86.5209 20.8002 87.9447 20.6335C88.847 20.4752 89.8486 20.4752 90.6185 19.9169C91.1317 19.5752 91.0903 18.7419 90.5605 18.4419C90.1052 18.1835 89.5754 18.1252 89.0705 18.0669C88.2096 18.0169 87.1583 18.1585 86.7113 19.0002C85.5938 19.0085 84.4681 19.0002 83.3423 19.0002C83.5244 17.5252 84.6005 16.2335 85.9994 15.7252" fill="#5EAB46"/>
<path d="M55.1646 17.067C56.6712 15.8587 58.6992 15.5587 60.5783 15.6004C60.5783 16.7837 60.5783 17.967 60.5783 19.1504C59.6015 19.167 58.5337 19.017 57.6562 19.5337C56.845 19.9837 56.5718 20.967 56.5718 21.8254V28.842C55.3964 28.842 54.2292 28.842 53.062 28.842C53.062 26.5004 53.0455 24.1754 53.062 21.8504C53.0952 20.067 53.7325 18.2087 55.1563 17.067" fill="#5EAB46"/>
<path d="M115.684 11.7501C116.677 11.8501 117.902 11.4251 118.672 12.2418C119.127 12.6418 119.202 13.2668 119.169 13.8418C119.16 14.4501 119.16 15.0668 119.169 15.6751H121.23C121.221 16.2751 121.321 16.9668 120.857 17.4501C120.46 17.9501 119.789 18.0918 119.177 18.0584C119.177 20.4668 119.177 22.8834 119.177 25.3001C119.152 25.6501 119.309 26.0501 119.673 26.1584C120.187 26.2751 120.708 26.1918 121.23 26.2084C121.23 27.0834 121.221 27.9668 121.23 28.8418C120.029 28.8418 118.829 28.8834 117.629 28.7834C117.149 28.7418 116.66 28.6001 116.304 28.2501C115.849 27.8084 115.7 27.1418 115.7 26.5251C115.7 21.6001 115.7 16.6668 115.7 11.7501" fill="#0071B8"/>
<path d="M97.6132 17.1833C98.5155 16.075 99.9144 15.4417 101.338 15.325C102.919 15.1833 104.6 15.4167 105.941 16.3167C107.083 17.0833 107.778 18.3583 108.134 19.65C106.967 19.65 105.8 19.625 104.633 19.65C104.343 19.175 104.02 18.7 103.507 18.4583C102.53 18.0083 101.231 18.1083 100.452 18.8917C99.7737 19.6583 99.5999 20.7166 99.5585 21.7C99.5254 22.8333 99.5585 24.05 100.179 25.0416C101.057 26.5 103.449 26.5583 104.492 25.25C104.724 25.0083 105.005 24.7666 105.361 24.7666C106.313 24.725 107.265 24.7666 108.234 24.75C107.886 26.0416 107.157 27.2583 106.023 28C104.509 29.0416 102.538 29.2583 100.75 28.9417C99.1694 28.6833 97.7788 27.6333 97.0172 26.2416C96.2391 24.825 96.057 23.15 96.1149 21.5583C96.1811 20 96.5867 18.3916 97.6132 17.175" fill="#0071B8"/>
<path d="M109.574 15.6004C110.411 15.6587 111.296 15.467 112.099 15.7504C112.687 16.0254 113.117 16.642 113.093 17.3004V28.8504C111.925 28.8504 110.742 28.8504 109.574 28.8504C109.583 24.4337 109.574 20.017 109.574 15.6087" fill="#0071B8"/>
<path d="M122.521 15.6002H126.412C127.19 18.2502 127.951 20.9002 128.721 23.5502C128.837 23.9669 128.92 24.4002 129.135 24.7835C129.93 22.0752 130.708 19.3585 131.494 16.6502C131.643 16.0752 132.181 15.6502 132.785 15.6169C133.688 15.5752 134.598 15.6169 135.501 15.6002C133.911 20.2585 132.33 24.9252 130.741 29.5919C130.31 30.8585 129.896 32.3085 128.713 33.1085C127.388 33.7335 125.84 33.6585 124.425 33.5002V30.7752C125.277 30.7585 126.263 30.8835 126.974 30.2919C127.438 29.9335 127.372 29.2669 127.19 28.7752C125.633 24.3919 124.077 20.0002 122.521 15.6085" fill="#0071B8"/>
<path d="M19.8103 0.708496C17.2773 0.708496 14.8271 1.1835 12.5176 2.11683C10.2826 3.02516 8.27935 4.31683 6.5493 5.97516C4.81924 7.6335 3.46168 9.5585 2.51802 11.7168C1.53296 13.9502 1.0363 16.3168 1.0363 18.7585C1.0363 21.2002 1.53296 23.5752 2.51802 25.8002C3.46996 27.9502 4.82752 29.8835 6.5493 31.5418C8.27107 33.1918 10.2826 34.4918 12.5176 35.4002C14.8271 36.3335 17.2856 36.8085 19.8103 36.8085H126.983C129.516 36.8085 131.966 36.3335 134.275 35.3918C136.51 34.4835 138.522 33.1835 140.244 31.5335C141.974 29.8752 143.331 27.9418 144.275 25.7918C145.26 23.5585 145.757 21.1918 145.757 18.7502C145.757 16.3085 145.26 13.9335 144.275 11.7085C143.331 9.5585 141.974 7.62516 140.235 5.96683C138.514 4.31683 136.502 3.01683 134.267 2.1085C131.958 1.17516 129.499 0.700163 126.974 0.700163H19.8103V0.708496ZM126.983 37.2002H19.8103C17.2359 37.2002 14.7277 36.7168 12.3769 35.7585C10.0922 34.8335 8.04757 33.5085 6.29268 31.8252C4.52952 30.1335 3.13885 28.1585 2.17035 25.9668C1.16874 23.6918 0.655518 21.2668 0.655518 18.7668C0.655518 16.2668 1.16874 13.8502 2.17035 11.5668C3.13885 9.36683 4.52952 7.40016 6.29268 5.7085C8.05585 4.02516 10.1005 2.70016 12.3769 1.77516C14.736 0.816829 17.2359 0.333496 19.8103 0.333496H126.983C129.557 0.333496 132.057 0.816829 134.416 1.77516C136.693 2.70016 138.745 4.02516 140.5 5.7085C142.263 7.40016 143.654 9.37516 144.623 11.5668C145.624 13.8418 146.137 16.2668 146.137 18.7668C146.137 21.2668 145.624 23.6835 144.623 25.9668C143.654 28.1585 142.272 30.1335 140.5 31.8252C138.745 33.5085 136.693 34.8335 134.416 35.7585C132.057 36.7168 129.557 37.2002 126.983 37.2002Z" fill="#59595B"/>
<path d="M12.261 51.5083V43H14.1566L18.0637 49.1167H18.0885L18.0637 43H19.6613V51.5083H17.774L13.8337 45.35H13.8089L13.842 51.5083H12.2527H12.261Z" fill="white"/>
<path d="M21.499 51.5082V42.4165H23.0718V46.4665H23.1049C23.2456 46.1748 23.4857 45.9415 23.8002 45.7582C24.1231 45.5748 24.479 45.4832 24.8598 45.4832C25.58 45.4832 26.118 45.7082 26.474 46.1582C26.8382 46.6082 27.0203 47.1915 27.0203 47.8998V51.5082H25.4475V48.2998C25.4475 47.8415 25.3647 47.4748 25.2075 47.2082C25.0502 46.9415 24.7687 46.7998 24.3631 46.7998C23.9575 46.7998 23.6512 46.9498 23.4195 47.2582C23.1877 47.5665 23.0718 47.9415 23.0718 48.3832V51.5082H21.499Z" fill="white"/>
<path d="M30.4224 51.6583C29.8098 51.6583 29.3049 51.4916 28.9158 51.1499C28.5268 50.8166 28.3281 50.3833 28.3281 49.8499C28.3281 49.3166 28.4854 48.9083 28.8 48.6333C29.1145 48.3583 29.5532 48.1583 30.1244 48.0416C30.6956 47.9249 31.3164 47.8666 31.9786 47.8666H32.1938V47.7333C32.1938 47.3833 32.0862 47.1083 31.8627 46.9249C31.6475 46.7416 31.3412 46.6499 30.9605 46.6499C30.679 46.6499 30.4058 46.7166 30.1327 46.8333C29.8595 46.9583 29.6277 47.1166 29.4373 47.3083L28.6344 46.4083C28.949 46.1083 29.3297 45.8833 29.7602 45.7166C30.1906 45.5499 30.6459 45.4749 31.1177 45.4749C32.02 45.4749 32.6657 45.7083 33.063 46.1666C33.4603 46.6249 33.659 47.3166 33.659 48.2416V50.4999C33.659 50.7083 33.659 50.8833 33.6756 51.0249C33.6921 51.1666 33.6921 51.3249 33.6921 51.5083H32.2601C32.2435 51.3333 32.2352 51.1916 32.2435 51.0999C32.2518 51.0083 32.2435 50.8916 32.2435 50.7499H32.2104C32.0283 51.0416 31.78 51.2583 31.4654 51.4166C31.1508 51.5749 30.7949 51.6499 30.4058 51.6499L30.4224 51.6583ZM30.6293 44.7583L29.098 43.0166H30.7783L31.8379 44.7583H30.6211H30.6293ZM30.8115 50.5666C31.2585 50.5666 31.6144 50.4333 31.871 50.1666C32.1276 49.8999 32.2683 49.5499 32.2683 49.1249V48.8333H31.9952C31.3495 48.8333 30.828 48.8999 30.4224 49.0249C30.0168 49.1499 29.8098 49.4083 29.8098 49.7916C29.8098 50.0583 29.9092 50.2499 30.1161 50.3749C30.3231 50.4999 30.5548 50.5583 30.8115 50.5583V50.5666Z" fill="white"/>
<path d="M40.4055 51.6335C39.7764 51.6335 39.3046 51.4669 38.9983 51.1502C38.6837 50.8252 38.5347 50.3502 38.5347 49.7252V46.8502H37.5083V45.6502H38.5265V44.0752H40.0661V45.6502H41.523V46.8502H40.0661V49.4835C40.0661 49.8085 40.1324 50.0502 40.2565 50.1835C40.3807 50.3252 40.5794 50.3919 40.8525 50.3919C40.9519 50.3919 41.0512 50.3835 41.1671 50.3585C41.283 50.3335 41.3823 50.3002 41.4568 50.2502L41.4816 51.4502C41.3078 51.5169 41.1257 51.5585 40.9353 51.5919C40.7449 51.6169 40.5711 51.6335 40.4138 51.6335H40.4055Z" fill="white"/>
<path d="M42.5742 51.5082V42.4165H44.147V46.4665H44.1801C44.3208 46.1748 44.5609 45.9415 44.8754 45.7582C45.1983 45.5748 45.5542 45.4832 45.935 45.4832C46.6552 45.4832 47.1932 45.7082 47.5492 46.1582C47.9134 46.6082 48.0955 47.1915 48.0955 47.8998V51.5082H46.5227V48.2998C46.5227 47.8415 46.4399 47.4748 46.2827 47.2082C46.1254 46.9415 45.8439 46.7998 45.4383 46.7998C45.0327 46.7998 44.7264 46.9498 44.4947 47.2582C44.2629 47.5665 44.147 47.9415 44.147 48.3832V51.5082H42.5742Z" fill="white"/>
<path d="M51.8783 51.675C51.1747 51.675 50.6449 51.45 50.2807 51C49.9165 50.55 49.7344 49.975 49.7344 49.2666V45.6333H51.332V48.8583C51.332 49.3166 51.4148 49.675 51.572 49.95C51.7293 50.2166 52.0108 50.35 52.4164 50.35C52.822 50.35 53.1283 50.2 53.3518 49.8916C53.5753 49.5833 53.6912 49.2083 53.6912 48.75V45.6333H55.2639V51.0416C55.2639 51.175 55.2639 51.3333 55.2722 51.5H53.7408V50.625H53.716C53.5422 50.9583 53.2773 51.2166 52.9213 51.4C52.5654 51.5833 52.2177 51.675 51.8618 51.675H51.8783Z" fill="white"/>
<path d="M59.8415 51.6917C58.9393 51.6917 58.186 51.4 57.5817 50.8167C56.9691 50.2333 56.6711 49.4833 56.6711 48.5667C56.6711 47.65 56.9774 46.9083 57.5817 46.3333C58.186 45.7583 58.9393 45.475 59.8498 45.475C60.7604 45.475 61.5385 45.7583 62.151 46.3333C62.7636 46.9083 63.0616 47.65 63.0616 48.5667C63.0616 49.4833 62.7553 50.2167 62.1428 50.8083C61.5302 51.4 60.7686 51.6917 59.8498 51.6917H59.8415ZM57.7886 44.875L59.1131 43.1333H60.6031L61.9441 44.875H60.6445L59.8664 43.7833L59.0551 44.875H57.7886ZM59.8415 50.3417C60.3382 50.3417 60.7355 50.1667 61.0418 49.8167C61.3481 49.4667 61.4971 49.0417 61.4971 48.55C61.4971 48.0583 61.3398 47.6083 61.0253 47.275C60.7107 46.95 60.3134 46.7833 59.8333 46.7833C59.3531 46.7833 58.9558 46.95 58.6495 47.2917C58.3433 47.625 58.1943 48.05 58.1943 48.55C58.1943 49.05 58.3515 49.5 58.6661 49.8333C58.9806 50.1667 59.3697 50.3417 59.8333 50.3417H59.8415ZM61.4391 43.7333L62.4904 42H64.1708L62.656 43.7333H61.4391Z" fill="white"/>
<path d="M67.3412 51.6918C66.4058 51.6918 65.6277 51.4001 65.0317 50.8251C64.4274 50.2501 64.1294 49.5001 64.1294 48.5751C64.1294 47.6501 64.4274 46.9084 65.0234 46.3334C65.6194 45.7584 66.3892 45.4751 67.3246 45.4751C67.7385 45.4751 68.1441 45.5501 68.5332 45.7001C68.9305 45.8501 69.2451 46.0584 69.4934 46.3251L68.5166 47.3501C68.409 47.1918 68.2434 47.0584 68.0199 46.9501C67.8047 46.8501 67.5812 46.7918 67.3577 46.7918C66.8776 46.7918 66.4886 46.9584 66.1823 47.3001C65.876 47.6418 65.7187 48.0668 65.7187 48.5668C65.7187 49.1001 65.876 49.5334 66.1906 49.8501C66.5051 50.1668 66.9024 50.3334 67.3743 50.3334C67.6226 50.3334 67.8544 50.2834 68.0696 50.1751C68.2848 50.0668 68.4587 49.9501 68.5828 49.8001L69.5017 50.8251C69.2202 51.1334 68.8891 51.3501 68.5083 51.4834C68.1276 51.6168 67.7302 51.6834 67.3246 51.6834L67.3412 51.6918Z" fill="white"/>
<path d="M75.9667 51.5083V44.8583L74.3939 46.1L73.5496 44.95L76.1157 43H77.5808V51.5083H75.9667Z" fill="white"/>
<path d="M83.7643 51.7416C83.0276 51.7416 82.415 51.5249 81.9349 51.0999C81.4548 50.6749 81.1154 50.0999 80.9333 49.3916C80.7429 48.6832 80.6519 47.9666 80.6519 47.2332C80.6519 45.8166 80.925 44.7166 81.4796 43.9416C82.026 43.1666 82.7958 42.7749 83.7726 42.7749C84.5424 42.7749 85.1632 42.9999 85.6351 43.4582C86.1069 43.9166 86.4297 44.4832 86.6119 45.1582C86.794 45.8332 86.8767 46.5332 86.8767 47.2416C86.8767 48.6332 86.6119 49.7332 86.0821 50.5332C85.5523 51.3332 84.7825 51.7332 83.7726 51.7332L83.7643 51.7416ZM83.7643 50.3332C84.1202 50.3332 84.4182 50.1832 84.6417 49.8749C84.8652 49.5666 85.0225 49.1749 85.1053 48.6916C85.1881 48.2082 85.2295 47.7166 85.2295 47.2332C85.2295 46.2582 85.097 45.4999 84.8321 44.9582C84.5672 44.4166 84.2113 44.1499 83.756 44.1499C83.2345 44.1499 82.862 44.4416 82.622 45.0166C82.3819 45.5916 82.266 46.3416 82.266 47.2499C82.266 48.2916 82.3985 49.0666 82.6634 49.5749C82.9282 50.0832 83.2925 50.3416 83.756 50.3416L83.7643 50.3332Z" fill="white"/>
<path d="M91.2145 51.7416C90.4778 51.7416 89.8652 51.5249 89.3851 51.0999C88.905 50.6749 88.5656 50.0999 88.3835 49.3916C88.1931 48.6832 88.1021 47.9666 88.1021 47.2332C88.1021 45.8166 88.3752 44.7166 88.9298 43.9416C89.4762 43.1666 90.246 42.7749 91.2228 42.7749C91.9926 42.7749 92.6134 42.9999 93.0853 43.4582C93.5571 43.9166 93.8799 44.4832 94.062 45.1582C94.2442 45.8332 94.3269 46.5332 94.3269 47.2416C94.3269 48.6332 94.062 49.7332 93.5323 50.5332C93.0025 51.3332 92.2327 51.7332 91.2228 51.7332L91.2145 51.7416ZM91.2145 50.3332C91.5704 50.3332 91.8684 50.1832 92.0919 49.8749C92.3154 49.5666 92.4727 49.1749 92.5555 48.6916C92.6383 48.2082 92.6797 47.7166 92.6797 47.2332C92.6797 46.2582 92.5472 45.4999 92.2823 44.9582C92.0174 44.4166 91.6615 44.1499 91.2062 44.1499C90.6847 44.1499 90.3122 44.4416 90.0722 45.0166C89.8321 45.5916 89.7162 46.3416 89.7162 47.2499C89.7162 48.2916 89.8487 49.0666 90.1136 49.5749C90.3784 50.0832 90.7427 50.3416 91.2062 50.3416L91.2145 50.3332Z" fill="white"/>
<path d="M96.4293 45.0418C96.0734 45.0418 95.7754 44.9168 95.527 44.6668C95.2787 44.4168 95.1545 44.1168 95.1545 43.7585C95.1545 43.4002 95.2787 43.1002 95.527 42.8418C95.7754 42.5835 96.0816 42.4585 96.4293 42.4585C96.777 42.4585 97.0915 42.5835 97.3481 42.8335C97.6048 43.0835 97.7289 43.3918 97.7289 43.7502C97.7289 44.1085 97.6048 44.4002 97.3564 44.6585C97.1081 44.9168 96.8018 45.0418 96.4293 45.0418ZM96.4293 44.3752C96.6197 44.3752 96.777 44.3168 96.8929 44.1918C97.0088 44.0668 97.075 43.9252 97.075 43.7585C97.075 43.5835 97.0088 43.4335 96.8846 43.3085C96.7604 43.1835 96.6032 43.1252 96.421 43.1252C96.2389 43.1252 96.0982 43.1918 95.974 43.3168C95.8499 43.4418 95.7919 43.5918 95.7919 43.7668C95.7919 43.9502 95.8581 44.1002 95.9906 44.2168C96.123 44.3252 96.2638 44.3835 96.4128 44.3835L96.4293 44.3752ZM96.8018 47.7418L96.272 47.4752L99.2438 42.3335L99.7901 42.6085L96.8018 47.7418ZM99.608 47.5918C99.252 47.5918 98.954 47.4668 98.6974 47.2168C98.4408 46.9668 98.3167 46.6585 98.3167 46.3085C98.3167 45.9585 98.4408 45.6418 98.6974 45.3918C98.954 45.1418 99.252 45.0168 99.608 45.0168C99.9639 45.0168 100.278 45.1418 100.527 45.3918C100.775 45.6418 100.899 45.9502 100.899 46.3002C100.899 46.6502 100.775 46.9668 100.527 47.2168C100.278 47.4668 99.9722 47.5918 99.608 47.5918ZM99.608 46.9418C99.7901 46.9418 99.9391 46.8752 100.063 46.7502C100.187 46.6252 100.245 46.4752 100.245 46.3085C100.245 46.1335 100.187 45.9835 100.063 45.8502C99.9391 45.7168 99.7901 45.6585 99.608 45.6585C99.4259 45.6585 99.2851 45.7252 99.161 45.8502C99.0368 45.9752 98.9789 46.1252 98.9789 46.3085C98.9789 46.4918 99.0451 46.6418 99.1775 46.7585C99.31 46.8752 99.459 46.9335 99.608 46.9335V46.9418Z" fill="white"/>
<path d="M107.025 51.675C106.321 51.675 105.792 51.45 105.427 51C105.063 50.55 104.881 49.975 104.881 49.2666V45.6333H106.479V48.8583C106.479 49.3166 106.561 49.675 106.719 49.95C106.876 50.2166 107.157 50.35 107.563 50.35C107.969 50.35 108.275 50.2 108.498 49.8916C108.722 49.5833 108.838 49.2083 108.838 48.75V45.6333H110.411V51.0416C110.411 51.175 110.411 51.3333 110.419 51.5H108.888V50.625H108.863C108.689 50.9583 108.424 51.2166 108.068 51.4C107.712 51.5833 107.364 51.675 107.008 51.675H107.025Z" fill="white"/>
<path d="M112.621 54.3917C112.455 54.3917 112.281 54.3833 112.107 54.3583C111.934 54.3333 111.793 54.3083 111.677 54.2833L111.859 52.9333C112 52.975 112.132 53 112.248 53.0083C112.364 53.0167 112.439 53.025 112.472 53.025C112.778 53.025 112.993 52.95 113.134 52.8C113.275 52.65 113.399 52.4333 113.506 52.1667L113.78 51.4417L111.329 45.6333H113.076L114.566 49.7417L114.599 49.775H114.624L115.973 45.625H117.67L114.947 52.575C114.798 53 114.607 53.35 114.392 53.625C114.177 53.9 113.92 54.0917 113.631 54.2083C113.341 54.325 113.01 54.3833 112.612 54.3833L112.621 54.3917Z" fill="white"/>
<path d="M123.655 51.6335C123.026 51.6335 122.554 51.4669 122.248 51.1502C121.933 50.8252 121.784 50.3502 121.784 49.7252V46.8502H120.758V45.6502H121.776V44.0752H123.316V45.6502H124.773V46.8502H123.316V49.4835C123.316 49.8085 123.382 50.0502 123.506 50.1835C123.63 50.3252 123.829 50.3919 124.102 50.3919C124.201 50.3919 124.301 50.3835 124.417 50.3585C124.532 50.3335 124.632 50.3002 124.706 50.2502L124.731 51.4502C124.557 51.5169 124.375 51.5585 124.185 51.5919C123.994 51.6169 123.821 51.6335 123.663 51.6335H123.655Z" fill="white"/>
<path d="M125.758 44.7583L126.842 43.0166H128.539L126.999 44.7583H125.758ZM125.832 51.5166V45.6499H127.397V51.5166H125.832Z" fill="white"/>
<path d="M129.151 51.5084V46.8584C129.151 46.5417 129.151 46.3001 129.151 46.1501C129.151 46.0001 129.151 45.8334 129.151 45.6417H130.683C130.683 45.8834 130.691 46.0584 130.691 46.1584V46.5167H130.716C130.89 46.1834 131.155 45.9251 131.502 45.7501C131.85 45.5751 132.198 45.4834 132.537 45.4834C133.241 45.4834 133.77 45.7084 134.143 46.1584C134.515 46.6084 134.697 47.1917 134.697 47.9001V51.5084H133.1V48.2834C133.1 47.7667 133.009 47.3834 132.827 47.1417C132.645 46.9001 132.371 46.7834 132.015 46.7834C131.626 46.7834 131.32 46.9334 131.088 47.2417C130.865 47.5501 130.749 47.9334 130.749 48.3751V51.5001H129.16L129.151 51.5084Z" fill="white"/>
</svg>
